<mxfile host="65bd71144e">
    <diagram id="t6oqxTsCVhhhwPrmQ2RW" name="Page-1">
        <mxGraphModel dx="984" dy="489" grid="1" gridSize="10" guides="1" tooltips="1" connect="1" arrows="1" fold="1" page="1" pageScale="1" pageWidth="850" pageHeight="1100" math="0" shadow="0">
            <root>
                <mxCell id="0"/>
                <mxCell id="1" parent="0"/>
                <mxCell id="2" value="" style="edgeStyle=none;html=1;fontSize=13;" edge="1" source="4" target="6" parent="1">
                    <mxGeometry relative="1" as="geometry"/>
                </mxCell>
                <mxCell id="3" value="" style="edgeStyle=none;html=1;fontSize=13;" edge="1" source="4" target="7" parent="1">
                    <mxGeometry relative="1" as="geometry"/>
                </mxCell>
                <mxCell id="4" value="Neural Network Models" style="whiteSpace=wrap;html=1;fontFamily=IBM Plex Sans;fillColor=#e51400;fontColor=#ffffff;strokeColor=#B20000;fontSize=13;" vertex="1" parent="1">
                    <mxGeometry x="495" y="50" width="120" height="60" as="geometry"/>
                </mxCell>
                <mxCell id="5" value="" style="edgeStyle=none;html=1;fontSize=13;" edge="1" source="6" target="18" parent="1">
                    <mxGeometry relative="1" as="geometry"/>
                </mxCell>
                <mxCell id="6" value="Classical" style="whiteSpace=wrap;html=1;fontFamily=IBM Plex Sans;fillColor=#6a00ff;fontColor=#ffffff;strokeColor=#3700CC;fontSize=13;" vertex="1" parent="1">
                    <mxGeometry x="330" y="130" width="120" height="60" as="geometry"/>
                </mxCell>
                <mxCell id="7" value="Quantum" style="whiteSpace=wrap;html=1;fontFamily=IBM Plex Sans;fillColor=#6a00ff;fontColor=#ffffff;strokeColor=#3700CC;fontSize=13;" vertex="1" parent="1">
                    <mxGeometry x="675" y="130" width="120" height="60" as="geometry"/>
                </mxCell>
                <mxCell id="8" value="" style="edgeStyle=none;html=1;" edge="1" source="18" target="21" parent="1">
                    <mxGeometry relative="1" as="geometry"/>
                </mxCell>
                <mxCell id="9" value="" style="edgeStyle=none;html=1;" edge="1" source="18" target="21" parent="1">
                    <mxGeometry relative="1" as="geometry"/>
                </mxCell>
                <mxCell id="10" value="" style="edgeStyle=none;html=1;" edge="1" source="18" target="21" parent="1">
                    <mxGeometry relative="1" as="geometry"/>
                </mxCell>
                <mxCell id="11" value="" style="edgeStyle=none;html=1;" edge="1" source="18" target="21" parent="1">
                    <mxGeometry relative="1" as="geometry"/>
                </mxCell>
                <mxCell id="12" value="" style="edgeStyle=none;html=1;" edge="1" source="18" target="21" parent="1">
                    <mxGeometry relative="1" as="geometry"/>
                </mxCell>
                <mxCell id="13" value="" style="edgeStyle=none;html=1;" edge="1" source="18" target="21" parent="1">
                    <mxGeometry relative="1" as="geometry"/>
                </mxCell>
                <mxCell id="14" value="" style="edgeStyle=none;html=1;" edge="1" source="18" target="21" parent="1">
                    <mxGeometry relative="1" as="geometry"/>
                </mxCell>
                <mxCell id="15" style="edgeStyle=none;html=1;entryX=0.5;entryY=0;entryDx=0;entryDy=0;" edge="1" source="18" target="23" parent="1">
                    <mxGeometry relative="1" as="geometry">
                        <mxPoint x="250" y="390" as="targetPoint"/>
                    </mxGeometry>
                </mxCell>
                <mxCell id="16" value="" style="edgeStyle=none;html=1;" edge="1" source="18" target="21" parent="1">
                    <mxGeometry relative="1" as="geometry"/>
                </mxCell>
                <mxCell id="17" style="edgeStyle=none;html=1;entryX=0;entryY=0.5;entryDx=0;entryDy=0;" edge="1" source="18" target="24" parent="1">
                    <mxGeometry relative="1" as="geometry"/>
                </mxCell>
                <mxCell id="18" value="RNN" style="whiteSpace=wrap;html=1;fontFamily=IBM Plex Sans;fillColor=#008a00;fontColor=#ffffff;strokeColor=#005700;fontSize=13;" vertex="1" parent="1">
                    <mxGeometry x="250" y="270" width="120" height="60" as="geometry"/>
                </mxCell>
                <mxCell id="19" value="one of the&lt;br&gt;types" style="text;strokeColor=none;align=center;fillColor=none;html=1;verticalAlign=middle;whiteSpace=wrap;rounded=0;fontFamily=IBM Plex Sans;fontSize=13;" vertex="1" parent="1">
                    <mxGeometry x="280" y="220" width="60" height="30" as="geometry"/>
                </mxCell>
                <mxCell id="20" value="(modern archs.)" style="text;strokeColor=none;align=center;fillColor=none;html=1;verticalAlign=middle;whiteSpace=wrap;rounded=0;fontFamily=IBM Plex Sans;fontSize=13;" vertex="1" parent="1">
                    <mxGeometry x="290" y="340" width="60" height="30" as="geometry"/>
                </mxCell>
                <mxCell id="21" value="Gated Recurrent Unit (GRU)" style="whiteSpace=wrap;html=1;fontFamily=IBM Plex Sans;fillColor=#1ba1e2;fontColor=#ffffff;strokeColor=#006EAF;fontSize=13;" vertex="1" parent="1">
                    <mxGeometry x="340" y="380" width="120" height="60" as="geometry"/>
                </mxCell>
                <mxCell id="22" style="edgeStyle=none;html=1;entryX=0.5;entryY=1;entryDx=0;entryDy=0;" edge="1" source="23" target="21" parent="1">
                    <mxGeometry relative="1" as="geometry">
                        <mxPoint x="490" y="490" as="targetPoint"/>
                        <Array as="points">
                            <mxPoint x="260" y="490"/>
                            <mxPoint x="400" y="490"/>
                        </Array>
                    </mxGeometry>
                </mxCell>
                <mxCell id="23" value="Long short-term memory (LSTM)" style="whiteSpace=wrap;html=1;fontFamily=IBM Plex Sans;fillColor=#1ba1e2;fontColor=#ffffff;strokeColor=#006EAF;fontSize=13;" vertex="1" parent="1">
                    <mxGeometry x="200" y="380" width="120" height="60" as="geometry"/>
                </mxCell>
                <mxCell id="24" value="Bidirectional RNNs (BRNNs)" style="whiteSpace=wrap;html=1;fontFamily=IBM Plex Sans;fillColor=#1ba1e2;fontColor=#ffffff;strokeColor=#006EAF;fontSize=13;" vertex="1" parent="1">
                    <mxGeometry x="400" y="300" width="120" height="60" as="geometry"/>
                </mxCell>
                <mxCell id="25" value="(beyond the scope)" style="text;strokeColor=none;align=center;fillColor=none;html=1;verticalAlign=middle;whiteSpace=wrap;rounded=0;fontFamily=IBM Plex Sans;fontSize=13;" vertex="1" parent="1">
                    <mxGeometry x="410" y="260" width="80" height="30" as="geometry"/>
                </mxCell>
                <mxCell id="26" value="(more efficient)" style="text;strokeColor=none;align=center;fillColor=none;html=1;verticalAlign=middle;whiteSpace=wrap;rounded=0;fontFamily=IBM Plex Sans;fontSize=13;" vertex="1" parent="1">
                    <mxGeometry x="300" y="453" width="60" height="30" as="geometry"/>
                </mxCell>
            </root>
        </mxGraphModel>
    </diagram>
</mxfile>